<svg xmlns="http://www.w3.org/2000/svg" width="153" height="166" fill="none" viewBox="0 0 153 166">
  <path fill="#E5E5E5" d="M7.197 152.61h4.362v1.88H7.197v4.942H5.2v-4.942H.838v-1.88h4.361v-4.565h1.998v4.565Zm35-35h4.362v1.88h-4.362v4.942H40.2v-4.942h-4.361v-1.88H40.2v-4.565h1.998v4.565Zm35-105h4.362v1.88h-4.362v4.942H75.2V14.49h-4.361v-1.88H75.2V8.045h1.998v4.565Zm0 35h4.362v1.88h-4.362v4.942H75.2V49.49h-4.361v-1.88H75.2v-4.565h1.998v4.565Z"/>
  <path fill="#6246E5" d="M77.197 82.61h4.362v1.88h-4.362v4.942H75.2V84.49h-4.361v-1.88H75.2v-4.565h1.998v4.565Z"/>
  <path fill="#E5E5E5" d="M77.197 117.61h4.362v1.88h-4.362v4.942H75.2v-4.942h-4.361v-1.88H75.2v-4.565h1.998v4.565Zm0 35h4.362v1.88h-4.362v4.942H75.2v-4.942h-4.361v-1.88H75.2v-4.565h1.998v4.565Zm35-140h4.362v1.88h-4.362v4.942h-1.998V14.49h-4.361v-1.88h4.361V8.045h1.998v4.565Zm0 35h4.362v1.88h-4.362v4.942h-1.998V49.49h-4.361v-1.88h4.361v-4.565h1.998v4.565Zm0 35h4.362v1.88h-4.362v4.942h-1.998V84.49h-4.361v-1.88h4.361v-4.565h1.998v4.565Zm0 35h4.362v1.88h-4.362v4.942h-1.998v-4.942h-4.361v-1.88h4.361v-4.565h1.998v4.565Zm0 35h4.362v1.88h-4.362v4.942h-1.998v-4.942h-4.361v-1.88h4.361v-4.565h1.998v4.565Z"/>
  <path fill="#FF7152" d="M147.197 12.61h4.362v1.88h-4.362v4.942h-1.998V14.49h-4.361v-1.88h4.361V8.045h1.998v4.565Z"/>
  <path fill="#E5E5E5" d="M147.197 47.61h4.362v1.88h-4.362v4.942h-1.998V49.49h-4.361v-1.88h4.361v-4.565h1.998v4.565Zm0 35h4.362v1.88h-4.362v4.942h-1.998V84.49h-4.361v-1.88h4.361v-4.565h1.998v4.565Zm0 35h4.362v1.88h-4.362v4.942h-1.998v-4.942h-4.361v-1.88h4.361v-4.565h1.998v4.565Zm0 35h4.362v1.88h-4.362v4.942h-1.998v-4.942h-4.361v-1.88h4.361v-4.565h1.998v4.565Z"/>
</svg>
