<svg xmlns="http://www.w3.org/2000/svg" width="70" height="70" fill="none" viewBox="0 0 70 70">
  <circle cx="35" cy="35" r="35" fill="url(#a)"/>
  <path fill="#fff" d="M52.61 23.99a3.305 3.305 0 0 1-.242 3.721L33.894 51.818a3.34 3.34 0 0 1-3.3 1.255 3.339 3.339 0 0 1-2.597-2.389l-2.733-9.728-.285-1.013-.734-.752-7.059-7.232a3.339 3.339 0 0 1-.77-3.444 3.342 3.342 0 0 1 2.737-2.23l30.114-3.945a3.305 3.305 0 0 1 3.343 1.65Z"/>
  <path fill="#fff" d="m25.264 40.956 2.733 9.728a3.339 3.339 0 0 0 2.598 2.389 3.34 3.34 0 0 0 3.299-1.255l18.474-24.107a3.305 3.305 0 0 0 .242-3.72L24.98 39.944l.285 1.011Z"/>
  <path fill="url(#b)" d="M36.223 33.452c.281.486.115 1.11-.373 1.391l-10.586 6.112-.285-1.012-.734-.752 10.587-6.112a1.019 1.019 0 0 1 1.391.373Z"/>
  <path fill="url(#c)" d="m25.264 40.955 10.586-6.112c.488-.281.654-.904.373-1.391L24.98 39.944l.285 1.011Z"/>
  <defs>
    <linearGradient id="a" x1="49.647" x2="19.564" y1="1.964" y2="77.764" gradientUnits="userSpaceOnUse">
      <stop stop-color="#747DEF"/>
      <stop offset="1" stop-color="#5E3BE1"/>
    </linearGradient>
    <linearGradient id="b" x1="32.408" x2="33.545" y1="34.544" y2="36.825" gradientUnits="userSpaceOnUse">
      <stop stop-color="#747DEF"/>
      <stop offset="1" stop-color="#5E3BE1"/>
    </linearGradient>
    <linearGradient id="c" x1="32.903" x2="33.507" y1="35.402" y2="36.526" gradientUnits="userSpaceOnUse">
      <stop stop-color="#747DEF"/>
      <stop offset="1" stop-color="#5E3BE1"/>
    </linearGradient>
  </defs>
</svg>
