<?xml version="1.0" encoding="utf-8"?>
<!-- Generator: Adobe Illustrator 26.3.1, SVG Export Plug-In . SVG Version: 6.00 Build 0)  -->
<svg version="1.1" id="Шар_1" xmlns="http://www.w3.org/2000/svg" xmlns:xlink="http://www.w3.org/1999/xlink" x="0px" y="0px"
	 viewBox="0 0 221.4 147.8" style="enable-background:new 0 0 221.4 147.8;" xml:space="preserve">
<style type="text/css">
	.st0{fill:#FFFFFF;}
	.st1{fill:url(#SVGID_1_);}
	.st2{fill:url(#SVGID_00000013901657890448187090000008918275525853373362_);}
	.st3{fill:url(#SVGID_00000023265267823003668610000009709387163205605035_);}
</style>
<g>
	<g>
		<g>
			<path class="st0" d="M182.5,73c0-11.2-3.9-20.2-11.8-26.9S152.5,36,139.6,36H83.8c-13,0-23.4,3.4-31.2,10.1S40.9,61.8,40.9,73
				c0,11.1,3.9,20.1,11.7,26.8c7.8,6.8,18.2,10.2,31.2,10.2h55.8c12.9,0,23.3-3.4,31.2-10.2C178.6,93.1,182.5,84.1,182.5,73z
				 M212.7,73.4c0,12.8-3,24.1-9.1,33.7c-6,9.6-14.6,17-25.5,22.3c-11,5.3-23.8,7.9-38.4,7.9H83.5c-14.7,0-27.5-2.6-38.5-7.9
				c-10.9-5.3-19.4-12.7-25.5-22.3s-9.1-20.8-9.1-33.7s3-24.1,9.1-33.7s14.5-17,25.5-22.3s23.8-7.9,38.5-7.9h56.1
				c14.6,0,27.4,2.6,38.4,7.9s19.5,12.7,25.5,22.3C209.7,49.4,212.7,60.6,212.7,73.4z"/>
		</g>
	</g>
</g>
<g>
	<g>
		<g>
			<linearGradient id="SVGID_1_" gradientUnits="userSpaceOnUse" x1="51.5251" y1="13.1893" x2="171.8274" y2="133.4916">
				<stop  offset="4.469355e-03" style="stop-color:#21D4FD"/>
				<stop  offset="5.231035e-02" style="stop-color:#2EC5FD"/>
				<stop  offset="0.2233" style="stop-color:#5793FE"/>
				<stop  offset="0.3925" style="stop-color:#7A6AFE"/>
				<stop  offset="0.5569" style="stop-color:#944AFF"/>
				<stop  offset="0.7151" style="stop-color:#A833FF"/>
				<stop  offset="0.8644" style="stop-color:#B326FF"/>
				<stop  offset="0.9955" style="stop-color:#B721FF"/>
			</linearGradient>
			<path class="st1" d="M207.1,73.3c0,12-2.9,22.6-8.6,31.6s-13.7,16-24.1,20.9c-10.4,5-22.5,7.4-36.3,7.4h-53
				c-13.9,0-26-2.5-36.3-7.4c-10.3-5-18.3-11.9-24.1-20.9s-8.6-19.5-8.6-31.6s2.9-22.6,8.6-31.6s13.7-16,24.1-20.9
				s22.4-7.4,36.3-7.4h53c13.8,0,25.9,2.5,36.3,7.4c10.4,5,18.4,11.9,24.1,20.9S207.1,61.3,207.1,73.3z M187.7,73.1
				c0-12.4-4.2-22.4-12.7-29.9S155.4,32,141.5,32h-60c-14,0-25.2,3.7-33.6,11.2S35.4,60.7,35.4,73.1c0,12.3,4.2,22.3,12.6,29.8
				c8.4,7.5,19.6,11.3,33.6,11.3h60c13.9,0,25.1-3.8,33.5-11.3C183.5,95.4,187.7,85.4,187.7,73.1z"/>
		</g>
	</g>
</g>
<g>
	
		<linearGradient id="SVGID_00000173125181003119736030000014978909752206138021_" gradientUnits="userSpaceOnUse" x1="62.8991" y1="73.4329" x2="106.1224" y2="73.4329">
		<stop  offset="4.469355e-03" style="stop-color:#21D4FD"/>
		<stop  offset="5.231035e-02" style="stop-color:#2EC5FD"/>
		<stop  offset="0.2233" style="stop-color:#5793FE"/>
		<stop  offset="0.3925" style="stop-color:#7A6AFE"/>
		<stop  offset="0.5569" style="stop-color:#944AFF"/>
		<stop  offset="0.7151" style="stop-color:#A833FF"/>
		<stop  offset="0.8644" style="stop-color:#B326FF"/>
		<stop  offset="0.9955" style="stop-color:#B721FF"/>
	</linearGradient>
	<path style="fill:url(#SVGID_00000173125181003119736030000014978909752206138021_);" d="M87,76.3l9.3-21.2
		c0.4-0.8,1.3-1.4,2.5-1.4h4.8c1.8,0,3.1,1.4,2.4,2.7L88.9,91.8c-0.4,0.8-1.3,1.3-2.4,1.3h-3.9c-1.1,0-2-0.5-2.4-1.3L63.1,56.5
		c-0.6-1.3,0.6-2.7,2.4-2.7h4.8c1.1,0,2.1,0.5,2.5,1.4l9.3,21.2C82.9,78.1,86.2,78.1,87,76.3z"/>
</g>
<g>
	
		<linearGradient id="SVGID_00000176757937801262085650000016207636501889971645_" gradientUnits="userSpaceOnUse" x1="118.8891" y1="73.4329" x2="162.1124" y2="73.4329">
		<stop  offset="4.469355e-03" style="stop-color:#21D4FD"/>
		<stop  offset="5.231035e-02" style="stop-color:#2EC5FD"/>
		<stop  offset="0.2233" style="stop-color:#5793FE"/>
		<stop  offset="0.3925" style="stop-color:#7A6AFE"/>
		<stop  offset="0.5569" style="stop-color:#944AFF"/>
		<stop  offset="0.7151" style="stop-color:#A833FF"/>
		<stop  offset="0.8644" style="stop-color:#B326FF"/>
		<stop  offset="0.9955" style="stop-color:#B721FF"/>
	</linearGradient>
	<path style="fill:url(#SVGID_00000176757937801262085650000016207636501889971645_);" d="M143,76.3l9.3-21.2
		c0.4-0.8,1.3-1.4,2.5-1.4h4.8c1.8,0,3.1,1.4,2.4,2.7l-17.1,35.3c-0.4,0.8-1.3,1.3-2.4,1.3h-3.9c-1.1,0-2-0.5-2.4-1.3l-17.1-35.3
		c-0.6-1.3,0.6-2.7,2.4-2.7h4.8c1.1,0,2.1,0.5,2.5,1.4l9.3,21.2C138.8,78.1,142.2,78.1,143,76.3z"/>
</g>
</svg>
